<?xml version="1.0" standalone="no"?><!DOCTYPE svg PUBLIC "-//W3C//DTD SVG 1.1//EN" "http://www.w3.org/Graphics/SVG/1.1/DTD/svg11.dtd"><svg t="1647500678816" class="icon" viewBox="0 0 1114 1024" version="1.1" xmlns="http://www.w3.org/2000/svg" p-id="10160" xmlns:xlink="http://www.w3.org/1999/xlink" width="217.578125" height="200"><defs><style type="text/css"></style></defs><path d="M1100.030 462.683l1.78 1.409q-0.877-0.742-1.78-1.409zM14.998 464.711l3.213-2.546c-3.858 2.684-7.006 6.115-9.291 10.103z" fill="#e6e6e6" p-id="10161"></path><path d="M128.028 999.411c-0.283 1.903-0.581 3.794-0.84 5.71 0.534-2.031 0.85-4.366 0.868-6.772zM99.539 1026.602zM71.086 995.962q0.309-2.138 0.643-4.277c-0.434 1.81-0.694 3.896-0.717 6.037z" fill="#e6e6e6" p-id="10162"></path><path d="M1046.488 989.325c0.359 2.237 0.68 4.487 1.001 6.736-0.088-2.701-0.526-5.265-1.27-7.696zM989.298 1004.021c-0.248-1.768-0.507-3.522-0.779-5.277 0.138 2.416 0.546 4.679 1.193 6.839z" fill="#e6e6e6" p-id="10163"></path><path d="M558.67 889.074l-342.206 151.309 37.673-373.267-249.187-279.851 365.493-79.412 188.228-324.235 188.216 324.235 365.505 79.412-249.187 279.802 37.673 373.267z" fill="#e6e6e6" p-id="10164"></path></svg>