<?xml version="1.0" standalone="no"?><!DOCTYPE svg PUBLIC "-//W3C//DTD SVG 1.1//EN" "http://www.w3.org/Graphics/SVG/1.1/DTD/svg11.dtd"><svg t="1649816984391" class="icon" viewBox="0 0 1024 1024" version="1.1" xmlns="http://www.w3.org/2000/svg" p-id="3816" xmlns:xlink="http://www.w3.org/1999/xlink" width="200" height="200"><defs><style type="text/css">@font-face { font-family: feedback-iconfont; src: url("//at.alicdn.com/t/font_1031158_u69w8yhxdu.woff2?t=1630033759944") format("woff2"), url("//at.alicdn.com/t/font_1031158_u69w8yhxdu.woff?t=1630033759944") format("woff"), url("//at.alicdn.com/t/font_1031158_u69w8yhxdu.ttf?t=1630033759944") format("truetype"); }
</style></defs><path d="M128 96m32 0l704 0q32 0 32 32l0 768q0 32-32 32l-704 0q-32 0-32-32l0-768q0-32 32-32Z" fill="#ffffff" p-id="3817"></path><path d="M896 832v64a32 32 0 0 1-32 32v-96h32z m-320 64v32H160a32 32 0 0 1-32-32V128a32 32 0 0 1 32-32h704a32 32 0 0 1 32 32v416h-32V128H160v768h416z" fill="#ffffff" p-id="3818"></path><path d="M224 224h576v32H224V224z m0 128h576v32H224V352z" fill="#ffffff" p-id="3819"></path><path d="M224 224h352v32H224V224z m0 128h352v32H224V352z m0 128h224v32H224v-32z" fill="#ffffff" p-id="3820"></path><path d="M841.152 632.256s-28.224 70.72-73.152 72.992h-96s-62.208-19.936-68.608 46.208v59.584l-32.704 0.224s-56.416 4.8-56.416-112.032c0-58.24 56.416-59.232 56.416-59.232H736v-32h-128v-96s25.664-8.128 43.36-16.64c19.968-9.76 55.488-14.752 84.64-15.36 66.88-1.376 101.344 19.968 104.832 63.296l0.32 88.96zM640 544v32h32v-32h-32z" fill="#ffffff" p-id="3821"></path><path d="M730.976 800L736 832h105.152v68.384s-0.96 61.248-110.176 59.584c-100.704-1.536-97.824-59.584-97.824-59.584v-119.104C633.152 729.824 704 736 704 736h92.576c51.936-2.144 74.24-73.92 74.24-73.92v-59.584l36 1.056c-0.032 0 53.184 3.36 53.184 115.936 0 110.048-59.424 91.52-59.424 91.52l-169.6-11.008zM768 864v32h32v-32h-32z" fill="#ffffff" p-id="3822"></path></svg>