<?xml version="1.0" standalone="no"?><!DOCTYPE svg PUBLIC "-//W3C//DTD SVG 1.1//EN" "http://www.w3.org/Graphics/SVG/1.1/DTD/svg11.dtd"><svg t="1647500639651" class="icon" viewBox="0 0 1024 1024" version="1.1" xmlns="http://www.w3.org/2000/svg" p-id="8291" xmlns:xlink="http://www.w3.org/1999/xlink" width="200" height="200"><defs><style type="text/css"></style></defs><path d="M334.506667 549.546667c-6.826667-3.413333-17.066667-3.413333-20.48 0C262.826667 597.333333 68.266667 843.093333 68.266667 1006.933333c0 6.826667 3.413333 13.653333 10.24 17.066667h6.826666c3.413333 0 10.24-3.413333 13.653334-3.413333l88.746666-88.746667 88.746667 88.746667c6.826667 3.413333 13.653333 3.413333 20.48 0 6.826667 0 10.24-6.826667 10.24-17.066667 0-3.413333-23.893333-221.866667 34.133333-436.906667 0-6.826667 0-13.653333-6.826666-17.066666zM259.413333 252.586667c3.413333 3.413333 10.24 3.413333 13.653334 3.413333 3.413333 0 10.24 0 13.653333-3.413333 6.826667-6.826667 6.826667-17.066667 0-23.893334L235.52 174.08c-6.826667-3.413333-20.48-3.413333-27.306667 0s-3.413333 20.48 0 27.306667l51.2 51.2zM139.946667 133.12c3.413333 3.413333 10.24 3.413333 13.653333 3.413333s10.24 0 13.653333-3.413333c3.413333-6.826667 3.413333-20.48 0-27.306667l-34.133333-34.133333c-6.826667-3.413333-20.48-3.413333-27.306667 0s-3.413333 20.48 0 27.306667l34.133334 34.133333zM392.533333 102.4c10.24 0 17.066667-6.826667 17.066667-17.066667v-68.266666c0-10.24-6.826667-17.066667-17.066667-17.066667s-17.066667 6.826667-17.066666 17.066667v68.266666c0 10.24 6.826667 17.066667 17.066666 17.066667zM529.066667 238.933333c3.413333 0 10.24 0 13.653333-3.413333l136.533333-136.533333c6.826667-6.826667 6.826667-17.066667 0-23.893334s-17.066667-6.826667-23.893333 0l-136.533333 136.533334c-6.826667 6.826667-6.826667 17.066667 0 23.893333 0 3.413333 6.826667 3.413333 10.24 3.413333zM716.8 51.2c3.413333 0 10.24 0 13.653333-3.413333l17.066667-17.066667c6.826667-6.826667 6.826667-17.066667 0-23.893333s-17.066667-6.826667-23.893333 0l-17.066667 17.066666c-6.826667 6.826667-6.826667 17.066667 0 23.893334 0 3.413333 6.826667 3.413333 10.24 3.413333zM870.4 307.2h-204.8c-10.24 0-17.066667 6.826667-17.066667 17.066667s6.826667 17.066667 17.066667 17.066666h204.8c10.24 0 17.066667-6.826667 17.066667-17.066666s-6.826667-17.066667-17.066667-17.066667zM1006.933333 307.2h-68.266666c-10.24 0-17.066667 6.826667-17.066667 17.066667s6.826667 17.066667 17.066667 17.066666h68.266666c10.24 0 17.066667-6.826667 17.066667-17.066666s-6.826667-17.066667-17.066667-17.066667zM153.6 307.2c6.826667 0 17.066667-6.826667 17.066667-13.653333 0-10.24-6.826667-20.48-13.653334-20.48l-136.533333-17.066667c-10.24 0-20.48 6.826667-20.48 13.653333 0 10.24 6.826667 17.066667 13.653333 20.48l139.946667 17.066667zM71.68 542.72c3.413333 3.413333 10.24 3.413333 13.653333 3.413333s10.24 0 13.653334-3.413333l136.533333-136.533333c6.826667-6.826667 6.826667-17.066667 0-23.893334s-17.066667-6.826667-23.893333 0l-136.533334 136.533334c-6.826667 3.413333-6.826667 17.066667-3.413333 23.893333zM610.986667 413.013333c-6.826667-6.826667-17.066667-6.826667-23.893334 0s-6.826667 17.066667 0 23.893334l102.4 102.4c3.413333 3.413333 6.826667 3.413333 13.653334 3.413333s10.24 0 13.653333-3.413333c6.826667-6.826667 6.826667-17.066667 0-23.893334l-105.813333-102.4zM781.653333 583.68c-6.826667-6.826667-17.066667-6.826667-23.893333 0s-6.826667 17.066667 0 23.893333l34.133333 34.133334c3.413333 3.413333 6.826667 3.413333 13.653334 3.413333s10.24 0 13.653333-3.413333c6.826667-6.826667 6.826667-17.066667 0-23.893334l-37.546667-34.133333zM546.133333 556.373333c-3.413333-10.24-13.653333-13.653333-23.893333-10.24-10.24 3.413333-13.653333 13.653333-10.24 23.893334l68.266667 170.666666c3.413333 6.826667 10.24 10.24 17.066666 10.24h6.826667c10.24-3.413333 13.653333-13.653333 10.24-23.893333l-68.266667-170.666667z" fill="#e6e6e6" p-id="8292"></path><path d="M563.2 320.853333c6.826667-3.413333 6.826667-13.653333 6.826667-20.48s-10.24-10.24-17.066667-10.24H443.733333l-34.133333-105.813333c-3.413333-13.653333-27.306667-13.653333-34.133333 0l-34.133334 105.813333H232.106667c-6.826667 0-13.653333 3.413333-17.066667 10.24-3.413333 6.826667 0 13.653333 6.826667 20.48l88.746666 64.853334-34.133333 105.813333c-3.413333 6.826667 0 13.653333 6.826667 20.48 6.826667 3.413333 13.653333 3.413333 20.48 0l88.746666-64.853333 88.746667 64.853333c3.413333 3.413333 6.826667 3.413333 10.24 3.413333s6.826667 0 10.24-3.413333c6.826667-3.413333 6.826667-13.653333 6.826667-20.48l-34.133334-105.813333 88.746667-64.853334z" fill="#e6e6e6" p-id="8293"></path></svg>